<svg width="216" height="52" viewBox="0 0 216 52" fill="none" xmlns="http://www.w3.org/2000/svg">
<path d="M76.96 24.3247C76.96 24.0073 76.9315 23.7184 76.8745 23.458C76.8175 23.1976 76.6955 22.9575 76.5083 22.7378C76.3293 22.5181 76.0648 22.2983 75.7148 22.0786C75.373 21.8589 74.9255 21.631 74.3721 21.395C73.7129 21.1183 73.0741 20.8254 72.4556 20.5161C71.8371 20.1987 71.2796 19.8325 70.7832 19.4175C70.2868 19.0024 69.8921 18.5142 69.5991 17.9526C69.3143 17.383 69.1719 16.7157 69.1719 15.9507C69.1719 15.202 69.3062 14.5225 69.5747 13.9121C69.8514 13.3018 70.242 12.7809 70.7466 12.3496C71.2511 11.9102 71.8411 11.5724 72.5166 11.3364C73.2002 11.1004 73.9611 10.9824 74.7993 10.9824C75.9386 10.9824 76.9233 11.2184 77.7534 11.6904C78.5916 12.1624 79.2386 12.8094 79.6943 13.6313C80.1582 14.4533 80.3901 15.3973 80.3901 16.4634H76.8257C76.8257 15.9588 76.7524 15.5153 76.606 15.1328C76.4676 14.7422 76.2438 14.437 75.9346 14.2173C75.6253 13.9976 75.2266 13.8877 74.7383 13.8877C74.2826 13.8877 73.9041 13.9813 73.603 14.1685C73.3101 14.3475 73.0903 14.5957 72.9438 14.9131C72.8055 15.2223 72.7363 15.5723 72.7363 15.9629C72.7363 16.2559 72.8055 16.5203 72.9438 16.7563C73.0903 16.9842 73.2897 17.1917 73.542 17.3789C73.7943 17.5579 74.0913 17.7329 74.4331 17.9038C74.783 18.0747 75.1655 18.2415 75.5806 18.4043C76.3862 18.7217 77.0983 19.0716 77.7168 19.4541C78.3353 19.8285 78.8521 20.2516 79.2671 20.7236C79.6821 21.1875 79.9954 21.7124 80.207 22.2983C80.4186 22.8843 80.5244 23.5516 80.5244 24.3003C80.5244 25.0409 80.3942 25.7163 80.1338 26.3267C79.8815 26.9289 79.5112 27.4497 79.0229 27.8892C78.5347 28.3205 77.9447 28.6541 77.2529 28.8901C76.5693 29.1261 75.8044 29.2441 74.958 29.2441C74.1361 29.2441 73.3589 29.1302 72.6265 28.9023C71.894 28.6663 71.2471 28.3123 70.6855 27.8403C70.1322 27.3602 69.6968 26.7539 69.3794 26.0215C69.062 25.2809 68.9033 24.4061 68.9033 23.397H72.48C72.48 23.9341 72.5329 24.3939 72.6387 24.7764C72.7445 25.1507 72.9072 25.4518 73.127 25.6797C73.3467 25.8994 73.6152 26.0662 73.9326 26.1802C74.2581 26.286 74.6284 26.3389 75.0435 26.3389C75.5155 26.3389 75.8898 26.2493 76.1665 26.0703C76.4513 25.8913 76.6548 25.6512 76.7769 25.3501C76.8989 25.049 76.96 24.7072 76.96 24.3247ZM88.0928 29.2441C87.1895 29.2441 86.3879 29.1058 85.688 28.8291C84.9963 28.5524 84.4103 28.1536 83.9302 27.6328C83.45 27.1038 83.0838 26.465 82.8315 25.7163C82.5793 24.9676 82.4531 24.1131 82.4531 23.1528V22.0664C82.4531 20.9922 82.5752 20.0522 82.8193 19.2466C83.0635 18.4328 83.4093 17.7492 83.8569 17.1958C84.3045 16.6424 84.8538 16.2314 85.5049 15.9629C86.1641 15.6862 86.9087 15.5479 87.7388 15.5479C88.5688 15.5479 89.2972 15.6862 89.9238 15.9629C90.5586 16.2314 91.0835 16.6383 91.4985 17.1836C91.9136 17.7207 92.2269 18.388 92.4385 19.1855C92.6501 19.9831 92.7559 20.9108 92.7559 21.9688V23.5312H83.9058V21.1265H89.3989V20.8213C89.3989 20.2842 89.342 19.8366 89.228 19.4785C89.1141 19.1123 88.9351 18.8397 88.6909 18.6606C88.4468 18.4816 88.1213 18.3921 87.7144 18.3921C87.3726 18.3921 87.0837 18.4613 86.8477 18.5996C86.6117 18.738 86.4245 18.9536 86.2861 19.2466C86.1478 19.5396 86.0461 19.922 85.981 20.394C85.9159 20.8579 85.8833 21.4154 85.8833 22.0664V23.1528C85.8833 23.7632 85.9362 24.2759 86.042 24.6909C86.1478 25.0978 86.3024 25.4315 86.5059 25.6919C86.7174 25.9442 86.9738 26.1273 87.2749 26.2412C87.576 26.347 87.9259 26.3999 88.3247 26.3999C88.9269 26.3999 89.4681 26.2941 89.9482 26.0825C90.4365 25.8628 90.8516 25.5658 91.1934 25.1914L92.5605 27.2666C92.3245 27.5758 91.999 27.8851 91.584 28.1943C91.1689 28.5036 90.6725 28.7559 90.0947 28.9512C89.5169 29.1465 88.8496 29.2441 88.0928 29.2441ZM98.1514 18.7339V29H94.7334V15.792H97.9561L98.1514 18.7339ZM101.264 15.6943L101.215 19.1001C101.061 19.0675 100.874 19.0431 100.654 19.0269C100.442 19.0106 100.255 19.0024 100.092 19.0024C99.7098 19.0024 99.3843 19.0635 99.1157 19.1855C98.8472 19.2995 98.6234 19.4744 98.4443 19.7104C98.2734 19.9383 98.1432 20.2231 98.0537 20.5649C97.9642 20.9067 97.9113 21.2933 97.895 21.7246L97.248 21.4805C97.248 20.6178 97.3132 19.8285 97.4434 19.1123C97.5817 18.388 97.7852 17.7614 98.0537 17.2324C98.3223 16.6953 98.6437 16.2803 99.0181 15.9873C99.4006 15.6943 99.8319 15.5479 100.312 15.5479C100.475 15.5479 100.646 15.5641 100.825 15.5967C101.012 15.6211 101.158 15.6536 101.264 15.6943ZM107.124 26.3633L109.248 15.792H112.812L109.187 29H107.05L107.124 26.3633ZM105.866 15.792L108.027 26.3755L108.063 29H105.915L102.29 15.792H105.866ZM118.049 15.792V29H114.619V15.792H118.049ZM114.46 12.374C114.46 11.8451 114.627 11.4097 114.96 11.0679C115.302 10.7179 115.758 10.543 116.328 10.543C116.905 10.543 117.361 10.7179 117.695 11.0679C118.028 11.4097 118.195 11.8451 118.195 12.374C118.195 12.8949 118.024 13.3302 117.683 13.6802C117.349 14.022 116.901 14.1929 116.34 14.1929C115.762 14.1929 115.302 14.022 114.96 13.6802C114.627 13.3302 114.46 12.8949 114.46 12.374ZM125.532 26.3999C125.849 26.3999 126.122 26.3348 126.35 26.2046C126.586 26.0744 126.765 25.8628 126.887 25.5698C127.009 25.2769 127.074 24.8984 127.082 24.4346H130.292C130.292 25.4274 130.081 26.286 129.658 27.0103C129.243 27.7264 128.681 28.2798 127.973 28.6704C127.273 29.0529 126.48 29.2441 125.593 29.2441C124.706 29.2441 123.933 29.1017 123.273 28.8169C122.614 28.5321 122.069 28.117 121.638 27.5718C121.215 27.0265 120.893 26.3633 120.673 25.582C120.462 24.7926 120.356 23.8893 120.356 22.8721V21.9077C120.356 20.9067 120.462 20.0116 120.673 19.2222C120.893 18.4328 121.215 17.7655 121.638 17.2202C122.069 16.675 122.61 16.2599 123.261 15.9751C123.92 15.6903 124.694 15.5479 125.581 15.5479C126.533 15.5479 127.359 15.7472 128.059 16.146C128.758 16.5366 129.304 17.1144 129.694 17.8794C130.093 18.6444 130.292 19.5884 130.292 20.7114H127.082C127.074 20.2069 127.013 19.7878 126.899 19.4541C126.793 19.1123 126.626 18.8519 126.398 18.6729C126.179 18.4857 125.886 18.3921 125.52 18.3921C125.137 18.3921 124.828 18.4735 124.592 18.6362C124.364 18.7909 124.189 19.0187 124.067 19.3198C123.953 19.6128 123.876 19.979 123.835 20.4185C123.794 20.8579 123.774 21.3543 123.774 21.9077V22.8721C123.774 23.4661 123.79 23.9829 123.823 24.4224C123.863 24.8537 123.941 25.2199 124.055 25.521C124.177 25.814 124.352 26.0337 124.58 26.1802C124.816 26.3267 125.133 26.3999 125.532 26.3999ZM137.58 29.2441C136.677 29.2441 135.875 29.1058 135.175 28.8291C134.484 28.5524 133.898 28.1536 133.417 27.6328C132.937 27.1038 132.571 26.465 132.319 25.7163C132.067 24.9676 131.94 24.1131 131.94 23.1528V22.0664C131.94 20.9922 132.062 20.0522 132.307 19.2466C132.551 18.4328 132.897 17.7492 133.344 17.1958C133.792 16.6424 134.341 16.2314 134.992 15.9629C135.651 15.6862 136.396 15.5479 137.226 15.5479C138.056 15.5479 138.785 15.6862 139.411 15.9629C140.046 16.2314 140.571 16.6383 140.986 17.1836C141.401 17.7207 141.714 18.388 141.926 19.1855C142.137 19.9831 142.243 20.9108 142.243 21.9688V23.5312H133.393V21.1265H138.886V20.8213C138.886 20.2842 138.829 19.8366 138.715 19.4785C138.601 19.1123 138.422 18.8397 138.178 18.6606C137.934 18.4816 137.609 18.3921 137.202 18.3921C136.86 18.3921 136.571 18.4613 136.335 18.5996C136.099 18.738 135.912 18.9536 135.773 19.2466C135.635 19.5396 135.533 19.922 135.468 20.394C135.403 20.8579 135.371 21.4154 135.371 22.0664V23.1528C135.371 23.7632 135.424 24.2759 135.529 24.6909C135.635 25.0978 135.79 25.4315 135.993 25.6919C136.205 25.9442 136.461 26.1273 136.762 26.2412C137.063 26.347 137.413 26.3999 137.812 26.3999C138.414 26.3999 138.955 26.2941 139.436 26.0825C139.924 25.8628 140.339 25.5658 140.681 25.1914L142.048 27.2666C141.812 27.5758 141.486 27.8851 141.071 28.1943C140.656 28.5036 140.16 28.7559 139.582 28.9512C139.004 29.1465 138.337 29.2441 137.58 29.2441ZM154.792 29H151.655L151.679 26.0459H154.792C155.655 26.0459 156.326 25.8913 156.806 25.582C157.286 25.2728 157.624 24.7845 157.819 24.1172C158.023 23.4499 158.125 22.575 158.125 21.4927V18.7217C158.125 17.8997 158.072 17.2039 157.966 16.6343C157.86 16.0565 157.681 15.5926 157.429 15.2427C157.176 14.8846 156.839 14.6201 156.416 14.4492C155.992 14.2783 155.467 14.1929 154.841 14.1929H151.594V11.2266H154.841C155.866 11.2266 156.798 11.3934 157.636 11.7271C158.474 12.0607 159.195 12.549 159.797 13.1919C160.399 13.8267 160.863 14.612 161.188 15.5479C161.514 16.4837 161.677 17.5498 161.677 18.7461V21.4927C161.677 22.6971 161.514 23.7632 161.188 24.6909C160.863 25.6187 160.399 26.404 159.797 27.0469C159.203 27.6816 158.483 28.1659 157.636 28.4995C156.79 28.8332 155.842 29 154.792 29ZM153.73 11.2266V29H150.153V11.2266H153.73ZM169.44 29.2441C168.537 29.2441 167.736 29.1058 167.036 28.8291C166.344 28.5524 165.758 28.1536 165.278 27.6328C164.798 27.1038 164.431 26.465 164.179 25.7163C163.927 24.9676 163.801 24.1131 163.801 23.1528V22.0664C163.801 20.9922 163.923 20.0522 164.167 19.2466C164.411 18.4328 164.757 17.7492 165.205 17.1958C165.652 16.6424 166.201 16.2314 166.853 15.9629C167.512 15.6862 168.256 15.5479 169.086 15.5479C169.917 15.5479 170.645 15.6862 171.271 15.9629C171.906 16.2314 172.431 16.6383 172.846 17.1836C173.261 17.7207 173.575 18.388 173.786 19.1855C173.998 19.9831 174.104 20.9108 174.104 21.9688V23.5312H165.253V21.1265H170.747V20.8213C170.747 20.2842 170.69 19.8366 170.576 19.4785C170.462 19.1123 170.283 18.8397 170.039 18.6606C169.794 18.4816 169.469 18.3921 169.062 18.3921C168.72 18.3921 168.431 18.4613 168.195 18.5996C167.959 18.738 167.772 18.9536 167.634 19.2466C167.495 19.5396 167.394 19.922 167.329 20.394C167.264 20.8579 167.231 21.4154 167.231 22.0664V23.1528C167.231 23.7632 167.284 24.2759 167.39 24.6909C167.495 25.0978 167.65 25.4315 167.854 25.6919C168.065 25.9442 168.321 26.1273 168.623 26.2412C168.924 26.347 169.274 26.3999 169.672 26.3999C170.275 26.3999 170.816 26.2941 171.296 26.0825C171.784 25.8628 172.199 25.5658 172.541 25.1914L173.908 27.2666C173.672 27.5758 173.347 27.8851 172.932 28.1943C172.517 28.5036 172.02 28.7559 171.442 28.9512C170.865 29.1465 170.197 29.2441 169.44 29.2441ZM179.804 26.3633L181.928 15.792H185.493L181.867 29H179.731L179.804 26.3633ZM178.547 15.792L180.708 26.3755L180.744 29H178.596L174.97 15.792H178.547ZM190.729 15.792V29H187.299V15.792H190.729ZM187.141 12.374C187.141 11.8451 187.307 11.4097 187.641 11.0679C187.983 10.7179 188.439 10.543 189.008 10.543C189.586 10.543 190.042 10.7179 190.375 11.0679C190.709 11.4097 190.876 11.8451 190.876 12.374C190.876 12.8949 190.705 13.3302 190.363 13.6802C190.03 14.022 189.582 14.1929 189.021 14.1929C188.443 14.1929 187.983 14.022 187.641 13.6802C187.307 13.3302 187.141 12.8949 187.141 12.374ZM198.212 26.3999C198.53 26.3999 198.802 26.3348 199.03 26.2046C199.266 26.0744 199.445 25.8628 199.567 25.5698C199.689 25.2769 199.755 24.8984 199.763 24.4346H202.973C202.973 25.4274 202.762 26.286 202.338 27.0103C201.923 27.7264 201.362 28.2798 200.654 28.6704C199.954 29.0529 199.16 29.2441 198.273 29.2441C197.386 29.2441 196.613 29.1017 195.954 28.8169C195.295 28.5321 194.75 28.117 194.318 27.5718C193.895 27.0265 193.574 26.3633 193.354 25.582C193.142 24.7926 193.037 23.8893 193.037 22.8721V21.9077C193.037 20.9067 193.142 20.0116 193.354 19.2222C193.574 18.4328 193.895 17.7655 194.318 17.2202C194.75 16.675 195.291 16.2599 195.942 15.9751C196.601 15.6903 197.374 15.5479 198.261 15.5479C199.213 15.5479 200.039 15.7472 200.739 16.146C201.439 16.5366 201.984 17.1144 202.375 17.8794C202.774 18.6444 202.973 19.5884 202.973 20.7114H199.763C199.755 20.2069 199.694 19.7878 199.58 19.4541C199.474 19.1123 199.307 18.8519 199.079 18.6729C198.859 18.4857 198.566 18.3921 198.2 18.3921C197.818 18.3921 197.508 18.4735 197.272 18.6362C197.045 18.7909 196.87 19.0187 196.748 19.3198C196.634 19.6128 196.556 19.979 196.516 20.4185C196.475 20.8579 196.455 21.3543 196.455 21.9077V22.8721C196.455 23.4661 196.471 23.9829 196.503 24.4224C196.544 24.8537 196.621 25.2199 196.735 25.521C196.857 25.814 197.032 26.0337 197.26 26.1802C197.496 26.3267 197.814 26.3999 198.212 26.3999ZM210.261 29.2441C209.357 29.2441 208.556 29.1058 207.856 28.8291C207.164 28.5524 206.578 28.1536 206.098 27.6328C205.618 27.1038 205.252 26.465 205 25.7163C204.747 24.9676 204.621 24.1131 204.621 23.1528V22.0664C204.621 20.9922 204.743 20.0522 204.987 19.2466C205.231 18.4328 205.577 17.7492 206.025 17.1958C206.472 16.6424 207.022 16.2314 207.673 15.9629C208.332 15.6862 209.077 15.5479 209.907 15.5479C210.737 15.5479 211.465 15.6862 212.092 15.9629C212.727 16.2314 213.251 16.6383 213.667 17.1836C214.082 17.7207 214.395 18.388 214.606 19.1855C214.818 19.9831 214.924 20.9108 214.924 21.9688V23.5312H206.074V21.1265H211.567V20.8213C211.567 20.2842 211.51 19.8366 211.396 19.4785C211.282 19.1123 211.103 18.8397 210.859 18.6606C210.615 18.4816 210.289 18.3921 209.882 18.3921C209.541 18.3921 209.252 18.4613 209.016 18.5996C208.78 18.738 208.592 18.9536 208.454 19.2466C208.316 19.5396 208.214 19.922 208.149 20.394C208.084 20.8579 208.051 21.4154 208.051 22.0664V23.1528C208.051 23.7632 208.104 24.2759 208.21 24.6909C208.316 25.0978 208.47 25.4315 208.674 25.6919C208.885 25.9442 209.142 26.1273 209.443 26.2412C209.744 26.347 210.094 26.3999 210.493 26.3999C211.095 26.3999 211.636 26.2941 212.116 26.0825C212.604 25.8628 213.02 25.5658 213.361 25.1914L214.729 27.2666C214.493 27.5758 214.167 27.8851 213.752 28.1943C213.337 28.5036 212.84 28.7559 212.263 28.9512C211.685 29.1465 211.018 29.2441 210.261 29.2441Z" fill="#203C42"/>
<path d="M70.5664 46.3086L72.2891 40.6602H73.8008L71.2578 47.9668C71.1992 48.123 71.123 48.293 71.0293 48.4766C70.9355 48.6602 70.8125 48.834 70.6602 48.998C70.5117 49.166 70.3262 49.3008 70.1035 49.4023C69.8809 49.5078 69.6113 49.5605 69.2949 49.5605C69.1699 49.5605 69.0488 49.5488 68.9316 49.5254C68.8184 49.5059 68.7109 49.4844 68.6094 49.4609L68.6035 48.3828C68.6426 48.3867 68.6895 48.3906 68.7441 48.3945C68.8027 48.3984 68.8496 48.4004 68.8848 48.4004C69.1191 48.4004 69.3145 48.3711 69.4707 48.3125C69.627 48.2578 69.7539 48.168 69.8516 48.043C69.9531 47.918 70.0391 47.75 70.1094 47.5391L70.5664 46.3086ZM69.5938 40.6602L71.0996 45.4062L71.3516 46.8945L70.373 47.1465L68.0703 40.6602H69.5938ZM78.377 45.2891L80.2637 40.6602H81.4883L78.8574 47H77.8965L75.2715 40.6602H76.4961L78.377 45.2891ZM76.1328 40.6602V47H74.7207V40.6602H76.1328ZM80.6211 47V40.6602H82.0391V47H80.6211ZM87.9512 43.3086V44.4219H84.6699V43.3086H87.9512ZM85.0801 40.6602V47H83.668V40.6602H85.0801ZM88.9707 40.6602V47H87.5586V40.6602H88.9707ZM91.5254 42.6758H93.3945C93.9414 42.6758 94.4062 42.7676 94.7891 42.9512C95.1719 43.1348 95.4629 43.3906 95.6621 43.7188C95.8652 44.043 95.9668 44.4141 95.9668 44.832C95.9668 45.1406 95.9102 45.4277 95.7969 45.6934C95.6836 45.9551 95.5156 46.1836 95.293 46.3789C95.0742 46.5742 94.8047 46.7266 94.4844 46.8359C94.168 46.9453 93.8047 47 93.3945 47H90.5879V40.6602H92.0059V45.8809H93.3945C93.6758 45.8809 93.9004 45.832 94.0684 45.7344C94.2363 45.6367 94.3574 45.5098 94.4316 45.3535C94.5098 45.1973 94.5488 45.0312 94.5488 44.8555C94.5488 44.6758 94.5098 44.5059 94.4316 44.3457C94.3574 44.1855 94.2363 44.0547 94.0684 43.9531C93.9004 43.8516 93.6758 43.8008 93.3945 43.8008H91.5254V42.6758ZM98.4629 40.6602V47H97.0508V40.6602H98.4629ZM102.928 47.1172C102.459 47.1172 102.035 47.041 101.656 46.8887C101.281 46.7324 100.961 46.5156 100.695 46.2383C100.434 45.9609 100.232 45.6348 100.092 45.2598C99.9512 44.8848 99.8809 44.4805 99.8809 44.0469V43.8125C99.8809 43.3164 99.9531 42.8672 100.098 42.4648C100.242 42.0625 100.443 41.7188 100.701 41.4336C100.959 41.1445 101.264 40.9238 101.615 40.7715C101.967 40.6191 102.348 40.543 102.758 40.543C103.211 40.543 103.607 40.6191 103.947 40.7715C104.287 40.9238 104.568 41.1387 104.791 41.416C105.018 41.6895 105.186 42.0156 105.295 42.3945C105.408 42.7734 105.465 43.1914 105.465 43.6484V44.252H100.566V43.2383H104.07V43.127C104.062 42.873 104.012 42.6348 103.918 42.4121C103.828 42.1895 103.689 42.0098 103.502 41.873C103.314 41.7363 103.064 41.668 102.752 41.668C102.518 41.668 102.309 41.7188 102.125 41.8203C101.945 41.918 101.795 42.0605 101.674 42.248C101.553 42.4355 101.459 42.6621 101.393 42.9277C101.33 43.1895 101.299 43.4844 101.299 43.8125V44.0469C101.299 44.3242 101.336 44.582 101.41 44.8203C101.488 45.0547 101.602 45.2598 101.75 45.4355C101.898 45.6113 102.078 45.75 102.289 45.8516C102.5 45.9492 102.74 45.998 103.01 45.998C103.35 45.998 103.652 45.9297 103.918 45.793C104.184 45.6562 104.414 45.4629 104.609 45.2129L105.354 45.9336C105.217 46.1328 105.039 46.3242 104.82 46.5078C104.602 46.6875 104.334 46.834 104.018 46.9473C103.705 47.0605 103.342 47.1172 102.928 47.1172ZM112.496 40.6602V47H111.078V40.6602H112.496ZM114.576 40.6602V41.7734H109.033V40.6602H114.576ZM117.881 47.1172C117.412 47.1172 116.988 47.041 116.609 46.8887C116.234 46.7324 115.914 46.5156 115.648 46.2383C115.387 45.9609 115.186 45.6348 115.045 45.2598C114.904 44.8848 114.834 44.4805 114.834 44.0469V43.8125C114.834 43.3164 114.906 42.8672 115.051 42.4648C115.195 42.0625 115.396 41.7188 115.654 41.4336C115.912 41.1445 116.217 40.9238 116.568 40.7715C116.92 40.6191 117.301 40.543 117.711 40.543C118.164 40.543 118.561 40.6191 118.9 40.7715C119.24 40.9238 119.521 41.1387 119.744 41.416C119.971 41.6895 120.139 42.0156 120.248 42.3945C120.361 42.7734 120.418 43.1914 120.418 43.6484V44.252H115.52V43.2383H119.023V43.127C119.016 42.873 118.965 42.6348 118.871 42.4121C118.781 42.1895 118.643 42.0098 118.455 41.873C118.268 41.7363 118.018 41.668 117.705 41.668C117.471 41.668 117.262 41.7188 117.078 41.8203C116.898 41.918 116.748 42.0605 116.627 42.248C116.506 42.4355 116.412 42.6621 116.346 42.9277C116.283 43.1895 116.252 43.4844 116.252 43.8125V44.0469C116.252 44.3242 116.289 44.582 116.363 44.8203C116.441 45.0547 116.555 45.2598 116.703 45.4355C116.852 45.6113 117.031 45.75 117.242 45.8516C117.453 45.9492 117.693 45.998 117.963 45.998C118.303 45.998 118.605 45.9297 118.871 45.793C119.137 45.6562 119.367 45.4629 119.562 45.2129L120.307 45.9336C120.17 46.1328 119.992 46.3242 119.773 46.5078C119.555 46.6875 119.287 46.834 118.971 46.9473C118.658 47.0605 118.295 47.1172 117.881 47.1172ZM122.598 40.6602L123.805 42.7637L125.035 40.6602H126.588L124.666 43.7715L126.664 47H125.111L123.822 44.8086L122.533 47H120.975L122.967 43.7715L121.051 40.6602H122.598ZM131.885 43.3086V44.4219H128.604V43.3086H131.885ZM129.014 40.6602V47H127.602V40.6602H129.014ZM132.904 40.6602V47H131.492V40.6602H132.904ZM134.141 43.9004V43.7656C134.141 43.3086 134.207 42.8848 134.34 42.4941C134.473 42.0996 134.664 41.7578 134.914 41.4688C135.168 41.1758 135.477 40.9492 135.84 40.7891C136.207 40.625 136.621 40.543 137.082 40.543C137.547 40.543 137.961 40.625 138.324 40.7891C138.691 40.9492 139.002 41.1758 139.256 41.4688C139.51 41.7578 139.703 42.0996 139.836 42.4941C139.969 42.8848 140.035 43.3086 140.035 43.7656V43.9004C140.035 44.3574 139.969 44.7812 139.836 45.1719C139.703 45.5625 139.51 45.9043 139.256 46.1973C139.002 46.4863 138.693 46.7129 138.33 46.877C137.967 47.0371 137.555 47.1172 137.094 47.1172C136.629 47.1172 136.213 47.0371 135.846 46.877C135.482 46.7129 135.174 46.4863 134.92 46.1973C134.666 45.9043 134.473 45.5625 134.34 45.1719C134.207 44.7812 134.141 44.3574 134.141 43.9004ZM135.553 43.7656V43.9004C135.553 44.1855 135.582 44.4551 135.641 44.709C135.699 44.9629 135.791 45.1855 135.916 45.377C136.041 45.5684 136.201 45.7188 136.396 45.8281C136.592 45.9375 136.824 45.9922 137.094 45.9922C137.355 45.9922 137.582 45.9375 137.773 45.8281C137.969 45.7188 138.129 45.5684 138.254 45.377C138.379 45.1855 138.471 44.9629 138.529 44.709C138.592 44.4551 138.623 44.1855 138.623 43.9004V43.7656C138.623 43.4844 138.592 43.2188 138.529 42.9688C138.471 42.7148 138.377 42.4902 138.248 42.2949C138.123 42.0996 137.963 41.9473 137.768 41.8379C137.576 41.7246 137.348 41.668 137.082 41.668C136.816 41.668 136.586 41.7246 136.391 41.8379C136.199 41.9473 136.041 42.0996 135.916 42.2949C135.791 42.4902 135.699 42.7148 135.641 42.9688C135.582 43.2188 135.553 43.4844 135.553 43.7656ZM145.385 40.6602V41.7852H142.291V40.6602H145.385ZM146.492 40.6602V47H145.08V40.6602H146.492ZM141.945 40.6602H143.34L143.17 43.7949C143.146 44.2598 143.1 44.6699 143.029 45.0254C142.963 45.377 142.873 45.6797 142.76 45.9336C142.646 46.1836 142.508 46.3867 142.344 46.543C142.18 46.6992 141.988 46.8145 141.77 46.8887C141.551 46.9629 141.305 47 141.031 47H140.592L140.586 45.8398L140.809 45.8223C140.953 45.8105 141.078 45.7734 141.184 45.7109C141.289 45.6445 141.379 45.5508 141.453 45.4297C141.531 45.3086 141.594 45.1523 141.641 44.9609C141.691 44.7695 141.73 44.543 141.758 44.2812C141.789 44.0195 141.812 43.7148 141.828 43.3672L141.945 40.6602ZM147.723 43.9004V43.7656C147.723 43.3086 147.789 42.8848 147.922 42.4941C148.055 42.0996 148.246 41.7578 148.496 41.4688C148.75 41.1758 149.059 40.9492 149.422 40.7891C149.789 40.625 150.203 40.543 150.664 40.543C151.129 40.543 151.543 40.625 151.906 40.7891C152.273 40.9492 152.584 41.1758 152.838 41.4688C153.092 41.7578 153.285 42.0996 153.418 42.4941C153.551 42.8848 153.617 43.3086 153.617 43.7656V43.9004C153.617 44.3574 153.551 44.7812 153.418 45.1719C153.285 45.5625 153.092 45.9043 152.838 46.1973C152.584 46.4863 152.275 46.7129 151.912 46.877C151.549 47.0371 151.137 47.1172 150.676 47.1172C150.211 47.1172 149.795 47.0371 149.428 46.877C149.064 46.7129 148.756 46.4863 148.502 46.1973C148.248 45.9043 148.055 45.5625 147.922 45.1719C147.789 44.7812 147.723 44.3574 147.723 43.9004ZM149.135 43.7656V43.9004C149.135 44.1855 149.164 44.4551 149.223 44.709C149.281 44.9629 149.373 45.1855 149.498 45.377C149.623 45.5684 149.783 45.7188 149.979 45.8281C150.174 45.9375 150.406 45.9922 150.676 45.9922C150.938 45.9922 151.164 45.9375 151.355 45.8281C151.551 45.7188 151.711 45.5684 151.836 45.377C151.961 45.1855 152.053 44.9629 152.111 44.709C152.174 44.4551 152.205 44.1855 152.205 43.9004V43.7656C152.205 43.4844 152.174 43.2188 152.111 42.9688C152.053 42.7148 151.959 42.4902 151.83 42.2949C151.705 42.0996 151.545 41.9473 151.35 41.8379C151.158 41.7246 150.93 41.668 150.664 41.668C150.398 41.668 150.168 41.7246 149.973 41.8379C149.781 41.9473 149.623 42.0996 149.498 42.2949C149.373 42.4902 149.281 42.7148 149.223 42.9688C149.164 43.2188 149.135 43.4844 149.135 43.7656ZM159.02 40.6602V41.7852H156.254V47H154.842V40.6602H159.02ZM161.299 44.9375L163.789 40.6602H165.201V47H163.789V42.7168L161.299 47H159.887V40.6602H161.299V44.9375ZM168.154 44.9375L170.645 40.6602H172.057V47H170.645V42.7168L168.154 47H166.742V40.6602H168.154V44.9375Z" fill="#788891"/>
<path d="M32.0668 13.8665C33.1952 13.8665 34.1485 14.5936 34.5073 15.5998H43.4929C43.8517 14.5936 44.805 13.8665 45.9334 13.8665C47.3669 13.8665 48.5334 15.033 48.5334 16.4664C48.5334 17.8999 47.3669 19.0664 45.9334 19.0664C44.805 19.0664 43.8517 18.3392 43.4929 17.3331H34.5064C34.1476 18.3392 33.1943 19.0664 32.0659 19.0664C30.6324 19.0664 29.4659 17.8999 29.4659 16.4664C29.4659 15.033 30.6333 13.8665 32.0668 13.8665ZM45.9334 17.3331C46.411 17.3331 46.8001 16.9448 46.8001 16.4664C46.8001 15.988 46.411 15.5998 45.9334 15.5998C45.4559 15.5998 45.0668 15.988 45.0668 16.4664C45.0668 16.9448 45.4559 17.3331 45.9334 17.3331ZM32.0668 17.3331C32.5443 17.3331 32.9334 16.9448 32.9334 16.4664C32.9334 15.988 32.5443 15.5998 32.0668 15.5998C31.5892 15.5998 31.2001 15.988 31.2001 16.4664C31.2001 16.9448 31.5892 17.3331 32.0668 17.3331Z" fill="#00B2FF"/>
<path d="M25.1333 19.2259V13.8665C25.1333 13.636 25.2243 13.4158 25.3872 13.2538L28.8539 9.78716C29.0159 9.62423 29.2369 9.53323 29.4666 9.53323H32.2261C32.5849 8.52705 33.5382 7.79993 34.6666 7.79993C36.1001 7.79993 37.2666 8.96644 37.2666 10.3999C37.2666 11.8333 36.1001 12.9998 34.6666 12.9998C33.5382 12.9998 32.5849 12.2727 32.2261 11.2665H29.8254L26.8666 14.2253V19.2259C27.8728 19.5847 28.5999 20.538 28.5999 21.6664C28.5999 23.0998 27.4334 24.2663 25.9999 24.2663C24.5665 24.2663 23.3999 23.0998 23.3999 21.6664C23.3999 20.538 24.1271 19.5847 25.1333 19.2259ZM34.6666 11.2665C35.1441 11.2665 35.5333 10.8783 35.5333 10.3999C35.5333 9.92149 35.1441 9.53323 34.6666 9.53323C34.1891 9.53323 33.7999 9.92149 33.7999 10.3999C33.7999 10.8783 34.1891 11.2665 34.6666 11.2665ZM25.9999 22.533C26.4775 22.533 26.8666 22.1448 26.8666 21.6664C26.8666 21.188 26.4775 20.7997 25.9999 20.7997C25.5224 20.7997 25.1333 21.188 25.1333 21.6664C25.1333 22.1448 25.5224 22.533 25.9999 22.533Z" fill="#00B2FF"/>
<path d="M9.53333 22.533C9.93373 22.533 10.3081 22.6309 10.647 22.7938L12.1333 21.3075V12.9998C12.1333 12.7693 12.2243 12.5491 12.3873 12.3871L21.0609 3.7136C20.8979 3.37474 20.8 3.00035 20.8 2.59996C20.8 1.16651 21.9665 0 23.4 0C24.8335 0 26 1.16651 26 2.59996C26 4.0334 24.8335 5.19991 23.4 5.19991C22.9996 5.19991 22.6252 5.10198 22.2863 4.93905L13.8667 13.3586V21.6663C13.8667 21.8968 13.7757 22.117 13.6127 22.279L11.8725 24.0193C12.0354 24.3581 12.1333 24.7325 12.1333 25.1329C12.1333 26.5664 10.9668 27.7329 9.53333 27.7329C8.09987 27.7329 6.93333 26.5664 6.93333 25.1329C6.93333 23.6995 8.09987 22.533 9.53333 22.533ZM23.4 3.46661C23.8775 3.46661 24.2667 3.07835 24.2667 2.59996C24.2667 2.12156 23.8775 1.7333 23.4 1.7333C22.9225 1.7333 22.5333 2.12156 22.5333 2.59996C22.5333 3.07835 22.9225 3.46661 23.4 3.46661ZM9.53333 25.9996C10.0109 25.9996 10.4 25.6113 10.4 25.1329C10.4 24.6545 10.0109 24.2663 9.53333 24.2663C9.0558 24.2663 8.66667 24.6545 8.66667 25.1329C8.66667 25.6113 9.0558 25.9996 9.53333 25.9996Z" fill="#00B2FF"/>
<path d="M1.73328 12.2926V8.66652C1.73328 8.43599 1.82428 8.21586 1.98722 8.0538L8.05388 1.98723C8.21595 1.8243 8.43695 1.7333 8.66662 1.7333H13.1594C13.5182 0.727121 14.4716 0 15.6 0C17.0334 0 18.2 1.16651 18.2 2.59996C18.2 4.0334 17.0334 5.19991 15.6 5.19991C14.4716 5.19991 13.5182 4.47279 13.1594 3.46661H9.02542L3.46662 9.02532V12.2926C4.47282 12.6514 5.19995 13.6047 5.19995 14.7331C5.19995 16.1665 4.03342 17.333 2.59995 17.333C1.16648 17.333 -4.8995e-05 16.1665 -4.8995e-05 14.7331C-4.8995e-05 13.6047 0.727084 12.6514 1.73328 12.2926ZM15.6 3.46661C16.0775 3.46661 16.4666 3.07835 16.4666 2.59996C16.4666 2.12156 16.0775 1.7333 15.6 1.7333C15.1224 1.7333 14.7333 2.12156 14.7333 2.59996C14.7333 3.07835 15.1224 3.46661 15.6 3.46661ZM2.59995 15.5997C3.07748 15.5997 3.46662 15.2115 3.46662 14.7331C3.46662 14.2547 3.07748 13.8664 2.59995 13.8664C2.12242 13.8664 1.73328 14.2547 1.73328 14.7331C1.73328 15.2115 2.12242 15.5997 2.59995 15.5997Z" fill="#00B2FF"/>
<path d="M13.8658 46.9595V34.5066C12.8604 34.1478 12.1333 33.1945 12.1333 32.0661C12.1333 30.6327 13.2998 29.4661 14.7333 29.4661C15.8617 29.4661 16.815 30.1933 17.1738 31.1995H26.1594C26.5182 30.1933 27.4716 29.4661 28.6 29.4661C29.7284 29.4661 30.6817 30.1933 31.0405 31.1995H36.0412L39.2608 27.9798C39.0979 27.641 39 27.2666 39 26.8662C39 25.4327 40.1665 24.2662 41.6 24.2662C43.0334 24.2662 44.2 25.4327 44.2 26.8662C44.2 28.2996 43.0334 29.4661 41.6 29.4661C41.1996 29.4661 40.8252 29.3682 40.4863 29.2053L37.0127 32.6788C36.8506 32.8418 36.6296 32.9328 36.4 32.9328H31.0405C30.6817 33.9389 29.7284 34.6661 28.6 34.6661C27.4716 34.6661 26.5182 33.9389 26.1594 32.9328H17.173C16.9112 33.6668 16.3332 34.2449 15.5991 34.5066V46.9595C16.6053 47.3183 17.3324 48.2716 17.3324 49.4C17.3324 50.8335 16.1659 52 14.7324 52C13.299 52 12.1324 50.8335 12.1324 49.4C12.1324 48.2716 12.8596 47.3183 13.8658 46.9595ZM41.6 27.7328C42.0775 27.7328 42.4666 27.3446 42.4666 26.8662C42.4666 26.3878 42.0775 25.9995 41.6 25.9995C41.1224 25.9995 40.7333 26.3878 40.7333 26.8662C40.7333 27.3446 41.1224 27.7328 41.6 27.7328ZM28.6 32.9328C29.0775 32.9328 29.4666 32.5445 29.4666 32.0661C29.4666 31.5877 29.0775 31.1995 28.6 31.1995C28.1224 31.1995 27.7333 31.5877 27.7333 32.0661C27.7333 32.5445 28.1224 32.9328 28.6 32.9328ZM14.7333 50.2658C15.2108 50.2658 15.6 49.8775 15.6 49.3991C15.6 48.9208 15.2108 48.5325 14.7333 48.5325C14.2558 48.5325 13.8666 48.9208 13.8666 49.3991C13.8666 49.8775 14.2558 50.2658 14.7333 50.2658ZM14.7333 32.9328C15.2108 32.9328 15.6 32.5445 15.6 32.0661C15.6 31.5877 15.2108 31.1995 14.7333 31.1995C14.2558 31.1995 13.8666 31.5877 13.8666 32.0661C13.8666 32.5445 14.2558 32.9328 14.7333 32.9328Z" fill="#00B2FF"/>
<path d="M18.2 17.4925V14.7331C18.2 14.5026 18.291 14.2824 18.4539 14.1204L28.8609 3.7136C28.6979 3.37474 28.6 3.00035 28.6 2.59996C28.6 1.16651 29.7665 0 31.2 0C32.3284 0 33.2817 0.727121 33.6405 1.7333H37.2667C37.7451 1.7333 38.1333 2.1207 38.1333 2.59996V4.84112L41.353 8.06073C41.6919 7.8978 42.0663 7.79987 42.4667 7.79987C43.9001 7.79987 45.0667 8.96638 45.0667 10.3998C45.0667 11.8333 43.9001 12.9998 42.4667 12.9998C41.0332 12.9998 39.8667 11.8333 39.8667 10.3998C39.8667 9.99943 39.9646 9.62504 40.1275 9.28618L36.6539 5.81264C36.491 5.65057 36.4 5.43044 36.4 5.19991V3.46661H33.6405C33.2817 4.47279 32.3284 5.19991 31.2 5.19991C30.7996 5.19991 30.4252 5.10198 30.0863 4.93905L19.9333 15.0919V17.4925C20.9395 17.8513 21.6667 18.8046 21.6667 19.933C21.6667 21.3664 20.5001 22.533 19.0667 22.533C17.6332 22.533 16.4667 21.3664 16.4667 19.933C16.4667 18.8046 17.1938 17.8513 18.2 17.4925ZM42.4667 11.2665C42.9442 11.2665 43.3333 10.8782 43.3333 10.3998C43.3333 9.92143 42.9442 9.53317 42.4667 9.53317C41.9891 9.53317 41.6 9.92143 41.6 10.3998C41.6 10.8782 41.9891 11.2665 42.4667 11.2665ZM31.2 3.46661C31.6775 3.46661 32.0667 3.07835 32.0667 2.59996C32.0667 2.12156 31.6775 1.7333 31.2 1.7333C30.7225 1.7333 30.3333 2.12156 30.3333 2.59996C30.3333 3.07835 30.7225 3.46661 31.2 3.46661ZM19.0667 20.7997C19.5442 20.7997 19.9333 20.4114 19.9333 19.933C19.9333 19.4546 19.5442 19.0663 19.0667 19.0663C18.5891 19.0663 18.2 19.4546 18.2 19.933C18.2 20.4114 18.5891 20.7997 19.0667 20.7997Z" fill="#00B2FF"/>
<path d="M20.8 24.2663C21.9284 24.2663 22.8817 24.9934 23.2405 25.9996H33.4412L38.3873 21.0536C38.5493 20.8907 38.7703 20.7997 39 20.7997H48.1745L50.2667 18.7076V11.6253L43.5803 4.93905C43.2415 5.10198 42.8671 5.19991 42.4667 5.19991C41.0332 5.19991 39.8667 4.0334 39.8667 2.59996C39.8667 1.16651 41.0332 0 42.4667 0C43.9001 0 45.0667 1.16651 45.0667 2.59996C45.0667 3.00035 44.9687 3.37474 44.8058 3.7136L51.7461 10.6538C51.909 10.8158 52 11.0359 52 11.2665V19.0663C52 19.2969 51.909 19.517 51.7461 19.6791L49.1461 22.279C48.984 22.442 48.763 22.533 48.5333 22.533H39.3588L34.4127 27.4789C34.2507 27.6419 34.0297 27.7329 33.8 27.7329H23.2405C22.8817 28.7391 21.9284 29.4662 20.8 29.4662C19.3665 29.4662 18.2 28.2997 18.2 26.8662C18.2 25.4328 19.3665 24.2663 20.8 24.2663ZM42.4667 1.7333C41.9891 1.7333 41.6 2.12156 41.6 2.59996C41.6 3.07835 41.9891 3.46661 42.4667 3.46661C42.9442 3.46661 43.3333 3.07835 43.3333 2.59996C43.3333 2.12156 42.9442 1.7333 42.4667 1.7333ZM20.8 27.7329C21.2775 27.7329 21.6667 27.3446 21.6667 26.8662C21.6667 26.3878 21.2775 25.9996 20.8 25.9996C20.3225 25.9996 19.9333 26.3878 19.9333 26.8662C19.9333 27.3446 20.3225 27.7329 20.8 27.7329Z" fill="#00B2FF"/>
<path d="M2.59997 20.7997C3.00037 20.7997 3.37477 20.8976 3.71363 21.0606L6.9333 17.841V12.8404C5.9271 12.4816 5.19997 11.5283 5.19997 10.3999C5.19997 8.96644 6.3665 7.79993 7.79997 7.79993C9.23343 7.79993 10.4 8.96644 10.4 10.3999C10.4 11.5283 9.67283 12.4816 8.66663 12.8404V18.1998C8.66663 18.4303 8.57563 18.6504 8.4127 18.8125L4.9391 22.286C5.10204 22.6249 5.19997 22.9993 5.19997 23.3997C5.19997 24.528 4.47283 25.4814 3.46663 25.8402V26.5075L10.146 33.1868C10.309 33.3488 10.4 33.569 10.4 33.7995V34.8256C11.4062 35.1844 12.1333 36.1377 12.1333 37.2661C12.1333 38.3945 11.4062 39.3478 10.4 39.7066V41.7597C11.4062 42.1185 12.1333 43.0718 12.1333 44.2002C12.1333 45.6336 10.9668 46.8001 9.5333 46.8001C8.09983 46.8001 6.9333 45.6336 6.9333 44.2002C6.9333 43.0718 7.66043 42.1185 8.66663 41.7597V39.7066C7.66043 39.3478 6.9333 38.3945 6.9333 37.2661C6.9333 36.1377 7.66043 35.1844 8.66663 34.8256V34.1583L1.98723 27.479C1.8243 27.3169 1.7333 27.0968 1.7333 26.8663V25.8402C0.727101 25.4814 -3.26633e-05 24.528 -3.26633e-05 23.3997C-3.26633e-05 21.9662 1.1665 20.7997 2.59997 20.7997ZM7.79997 11.2665C8.2775 11.2665 8.66663 10.8783 8.66663 10.3999C8.66663 9.92149 8.2775 9.53323 7.79997 9.53323C7.32243 9.53323 6.9333 9.92149 6.9333 10.3999C6.9333 10.8783 7.32243 11.2665 7.79997 11.2665ZM9.5333 45.066C10.0108 45.066 10.4 44.6777 10.4 44.1993C10.4 43.7209 10.0108 43.3327 9.5333 43.3327C9.05577 43.3327 8.66663 43.7209 8.66663 44.1993C8.66663 44.6777 9.05577 45.066 9.5333 45.066ZM9.5333 38.1328C10.0108 38.1328 10.4 37.7445 10.4 37.2661C10.4 36.7877 10.0108 36.3995 9.5333 36.3995C9.05577 36.3995 8.66663 36.7877 8.66663 37.2661C8.66663 37.7445 9.05577 38.1328 9.5333 38.1328ZM2.59997 24.2663C3.0775 24.2663 3.46663 23.8781 3.46663 23.3997C3.46663 22.9213 3.0775 22.533 2.59997 22.533C2.12243 22.533 1.7333 22.9213 1.7333 23.3997C1.7333 23.8781 2.12243 24.2663 2.59997 24.2663Z" fill="#00B2FF"/>
</svg>
